<svg width="263" height="66" viewBox="0 0 263 66" fill="none" xmlns="http://www.w3.org/2000/svg">
<path d="M12 2H0V63H12V2Z" fill="#F16D7F"/>
<path d="M49.401 15.029H41.345V38H35.626V15.029H27.57V10.431H49.401V15.029ZM76.4386 10.431V38H70.7006V26.125H58.5596V38H52.8216V10.431H58.5596V22.135H70.7006V10.431H76.4386ZM87.9502 14.896V21.983H97.1462V26.296H87.9502V33.535H99.7682V38H82.2122V10.431H99.7682V14.896H87.9502ZM123.633 33.63C124.545 33.63 125.292 33.5223 125.875 33.307C126.47 33.079 126.945 32.7813 127.3 32.414C127.655 32.0467 127.902 31.6287 128.041 31.16C128.18 30.6787 128.25 30.1847 128.25 29.678C128.25 29.1207 128.168 28.6203 128.003 28.177C127.838 27.7337 127.572 27.36 127.205 27.056C126.838 26.7393 126.356 26.4987 125.761 26.334C125.178 26.1693 124.456 26.087 123.595 26.087H118.75V33.63H123.633ZM118.75 14.763V22.211H122.493C123.291 22.211 124 22.1477 124.621 22.021C125.242 21.8817 125.761 21.6663 126.179 21.375C126.597 21.0837 126.914 20.7037 127.129 20.235C127.357 19.7537 127.471 19.1773 127.471 18.506C127.471 17.822 127.376 17.2393 127.186 16.758C127.009 16.2767 126.73 15.8903 126.35 15.599C125.97 15.3077 125.489 15.0987 124.906 14.972C124.323 14.8327 123.633 14.763 122.835 14.763H118.75ZM122.835 10.431C124.684 10.431 126.261 10.6083 127.566 10.963C128.883 11.305 129.954 11.799 130.777 12.445C131.613 13.0783 132.221 13.851 132.601 14.763C132.981 15.675 133.171 16.6947 133.171 17.822C133.171 18.4553 133.076 19.0633 132.886 19.646C132.709 20.2287 132.424 20.7797 132.031 21.299C131.651 21.8057 131.157 22.268 130.549 22.686C129.941 23.104 129.219 23.4587 128.383 23.75C130.258 24.1933 131.645 24.9153 132.544 25.916C133.443 26.9167 133.893 28.215 133.893 29.811C133.893 30.9763 133.665 32.0593 133.209 33.06C132.766 34.0607 132.113 34.9283 131.252 35.663C130.391 36.3977 129.327 36.974 128.06 37.392C126.806 37.7973 125.362 38 123.728 38H113.05V10.431H122.835ZM146.873 23.484C147.798 23.484 148.596 23.37 149.267 23.142C149.939 22.9013 150.49 22.5783 150.92 22.173C151.351 21.755 151.668 21.2673 151.87 20.71C152.073 20.1527 152.174 19.5447 152.174 18.886C152.174 17.5813 151.737 16.568 150.863 15.846C150.002 15.124 148.685 14.763 146.911 14.763H143.947V23.484H146.873ZM160.23 38H155.081C154.119 38 153.422 37.6327 152.991 36.898L147.747 28.443C147.532 28.1137 147.291 27.873 147.025 27.721C146.772 27.569 146.392 27.493 145.885 27.493H143.947V38H138.247V10.431H146.911C148.837 10.431 150.483 10.6337 151.851 11.039C153.219 11.4317 154.34 11.9827 155.214 12.692C156.088 13.4013 156.728 14.25 157.133 15.238C157.539 16.2133 157.741 17.29 157.741 18.468C157.741 19.38 157.608 20.2477 157.342 21.071C157.089 21.8817 156.715 22.6227 156.221 23.294C155.727 23.9653 155.119 24.5607 154.397 25.08C153.675 25.5993 152.852 26.0173 151.927 26.334C152.295 26.5367 152.637 26.7837 152.953 27.075C153.27 27.3537 153.555 27.6893 153.808 28.082L160.23 38ZM177.479 27.531L174.496 19.095C174.319 18.6517 174.129 18.1323 173.926 17.537C173.736 16.9417 173.552 16.2957 173.375 15.599C173.198 16.3083 173.008 16.967 172.805 17.575C172.615 18.1703 172.431 18.6897 172.254 19.133L169.29 27.531H177.479ZM187.055 38H182.628C182.134 38 181.729 37.886 181.412 37.658C181.108 37.4173 180.88 37.1133 180.728 36.746L178.866 31.483H167.884L166.022 36.746C165.895 37.0627 165.674 37.354 165.357 37.62C165.04 37.8733 164.641 38 164.16 38H159.695L170.468 10.431H176.301L187.055 38ZM213.224 10.431V38H210.279C209.835 38 209.462 37.9303 209.158 37.791C208.854 37.639 208.556 37.3857 208.265 37.031L194.528 19.551C194.566 19.9943 194.591 20.4313 194.604 20.862C194.629 21.2927 194.642 21.6917 194.642 22.059V38H189.607V10.431H192.609C192.849 10.431 193.052 10.4437 193.217 10.469C193.394 10.4817 193.552 10.526 193.692 10.602C193.831 10.6653 193.964 10.754 194.091 10.868C194.217 10.982 194.357 11.134 194.509 11.324L208.341 28.88C208.29 28.3987 208.252 27.9363 208.227 27.493C208.201 27.037 208.189 26.6063 208.189 26.201V10.431H213.224ZM243.716 24.206C243.716 26.22 243.374 28.0757 242.69 29.773C242.019 31.4577 241.063 32.908 239.821 34.124C238.593 35.34 237.111 36.29 235.375 36.974C233.64 37.658 231.715 38 229.599 38H218.997V10.431H229.599C231.715 10.431 233.64 10.773 235.375 11.457C237.111 12.141 238.593 13.0973 239.821 14.326C241.063 15.542 242.019 16.9923 242.69 18.677C243.374 20.3617 243.716 22.2047 243.716 24.206ZM237.864 24.206C237.864 22.762 237.674 21.4637 237.294 20.311C236.914 19.1583 236.37 18.183 235.66 17.385C234.951 16.587 234.083 15.9727 233.057 15.542C232.044 15.1113 230.891 14.896 229.599 14.896H224.735V33.535H229.599C230.891 33.535 232.044 33.326 233.057 32.908C234.083 32.4773 234.951 31.863 235.66 31.065C236.37 30.2543 236.914 29.2727 237.294 28.12C237.674 26.9673 237.864 25.6627 237.864 24.206ZM42.4 54.77C42.4 55.83 42.2233 56.8133 41.87 57.72C41.5233 58.62 41.03 59.4 40.39 60.06C39.75 60.72 38.98 61.2367 38.08 61.61C37.18 61.9767 36.18 62.16 35.08 62.16C33.9867 62.16 32.99 61.9767 32.09 61.61C31.19 61.2367 30.4167 60.72 29.77 60.06C29.13 59.4 28.6333 58.62 28.28 57.72C27.9267 56.8133 27.75 55.83 27.75 54.77C27.75 53.71 27.9267 52.73 28.28 51.83C28.6333 50.9233 29.13 50.14 29.77 49.48C30.4167 48.82 31.19 48.3067 32.09 47.94C32.99 47.5667 33.9867 47.38 35.08 47.38C35.8133 47.38 36.5033 47.4667 37.15 47.64C37.7967 47.8067 38.39 48.0467 38.93 48.36C39.47 48.6667 39.9533 49.0433 40.38 49.49C40.8133 49.93 41.18 50.4233 41.48 50.97C41.78 51.5167 42.0067 52.11 42.16 52.75C42.32 53.39 42.4 54.0633 42.4 54.77ZM39.65 54.77C39.65 53.9767 39.5433 53.2667 39.33 52.64C39.1167 52.0067 38.8133 51.47 38.42 51.03C38.0267 50.59 37.5467 50.2533 36.98 50.02C36.42 49.7867 35.7867 49.67 35.08 49.67C34.3733 49.67 33.7367 49.7867 33.17 50.02C32.61 50.2533 32.13 50.59 31.73 51.03C31.3367 51.47 31.0333 52.0067 30.82 52.64C30.6067 53.2667 30.5 53.9767 30.5 54.77C30.5 55.5633 30.6067 56.2767 30.82 56.91C31.0333 57.5367 31.3367 58.07 31.73 58.51C32.13 58.9433 32.61 59.2767 33.17 59.51C33.7367 59.7433 34.3733 59.86 35.08 59.86C35.7867 59.86 36.42 59.7433 36.98 59.51C37.5467 59.2767 38.0267 58.9433 38.42 58.51C38.8133 58.07 39.1167 57.5367 39.33 56.91C39.5433 56.2767 39.65 55.5633 39.65 54.77ZM47.4623 49.68V53.96H52.8823V56.11H47.4623V62H44.7623V47.54H53.8823V49.68H47.4623ZM68.9355 59.78V62H60.4655V47.54H63.1555V59.78H68.9355ZM76.2855 59.83C76.8055 59.83 77.2688 59.7433 77.6755 59.57C78.0888 59.3967 78.4355 59.1533 78.7155 58.84C78.9955 58.5267 79.2088 58.1467 79.3555 57.7C79.5088 57.2533 79.5855 56.7533 79.5855 56.2V47.54H82.2755V56.2C82.2755 57.06 82.1355 57.8567 81.8555 58.59C81.5821 59.3167 81.1855 59.9467 80.6655 60.48C80.1521 61.0067 79.5255 61.42 78.7855 61.72C78.0455 62.0133 77.2121 62.16 76.2855 62.16C75.3521 62.16 74.5155 62.0133 73.7755 61.72C73.0355 61.42 72.4055 61.0067 71.8855 60.48C71.3721 59.9467 70.9755 59.3167 70.6955 58.59C70.4221 57.8567 70.2855 57.06 70.2855 56.2V47.54H72.9755V56.19C72.9755 56.7433 73.0488 57.2433 73.1955 57.69C73.3488 58.1367 73.5655 58.52 73.8455 58.84C74.1321 59.1533 74.4788 59.3967 74.8855 59.57C75.2988 59.7433 75.7655 59.83 76.2855 59.83ZM97.0592 62H94.3792C94.1926 62 94.0426 61.9533 93.9292 61.86C93.8226 61.7667 93.7359 61.66 93.6692 61.54L90.3192 55.99C90.2659 56.1567 90.2026 56.3 90.1292 56.42L86.9192 61.54C86.8392 61.6533 86.7459 61.76 86.6392 61.86C86.5392 61.9533 86.4059 62 86.2392 62H83.7292L88.5292 54.56L83.9192 47.54H86.5992C86.7859 47.54 86.9192 47.5667 86.9992 47.62C87.0859 47.6667 87.1659 47.7467 87.2392 47.86L90.5292 53.16C90.5959 52.9933 90.6759 52.8267 90.7692 52.66L93.7892 47.91C93.8626 47.7833 93.9426 47.69 94.0292 47.63C94.1159 47.57 94.2259 47.54 94.3592 47.54H96.9292L92.2792 54.45L97.0592 62ZM101.427 49.68V53.69H106.487V55.76H101.427V59.85H107.847V62H98.7272V47.54H107.847V49.68H101.427ZM114.601 54.42C115.108 54.42 115.548 54.3567 115.921 54.23C116.301 54.1033 116.611 53.93 116.851 53.71C117.098 53.4833 117.281 53.2167 117.401 52.91C117.521 52.6033 117.581 52.2667 117.581 51.9C117.581 51.1667 117.338 50.6033 116.851 50.21C116.371 49.8167 115.634 49.62 114.641 49.62H112.921V54.42H114.601ZM121.521 62H119.091C118.631 62 118.298 61.82 118.091 61.46L115.051 56.83C114.938 56.6567 114.811 56.5333 114.671 56.46C114.538 56.3867 114.338 56.35 114.071 56.35H112.921V62H110.231V47.54H114.641C115.621 47.54 116.461 47.6433 117.161 47.85C117.868 48.05 118.444 48.3333 118.891 48.7C119.344 49.0667 119.678 49.5067 119.891 50.02C120.104 50.5267 120.211 51.0867 120.211 51.7C120.211 52.1867 120.138 52.6467 119.991 53.08C119.851 53.5133 119.644 53.9067 119.371 54.26C119.104 54.6133 118.771 54.9233 118.371 55.19C117.978 55.4567 117.528 55.6667 117.021 55.82C117.194 55.92 117.354 56.04 117.501 56.18C117.648 56.3133 117.781 56.4733 117.901 56.66L121.521 62ZM125.783 62H123.083V47.54H125.783V62ZM142.81 54.77C142.81 55.83 142.633 56.8133 142.28 57.72C141.933 58.62 141.44 59.4 140.8 60.06C140.16 60.72 139.39 61.2367 138.49 61.61C137.59 61.9767 136.59 62.16 135.49 62.16C134.397 62.16 133.4 61.9767 132.5 61.61C131.6 61.2367 130.827 60.72 130.18 60.06C129.54 59.4 129.043 58.62 128.69 57.72C128.337 56.8133 128.16 55.83 128.16 54.77C128.16 53.71 128.337 52.73 128.69 51.83C129.043 50.9233 129.54 50.14 130.18 49.48C130.827 48.82 131.6 48.3067 132.5 47.94C133.4 47.5667 134.397 47.38 135.49 47.38C136.223 47.38 136.913 47.4667 137.56 47.64C138.207 47.8067 138.8 48.0467 139.34 48.36C139.88 48.6667 140.363 49.0433 140.79 49.49C141.223 49.93 141.59 50.4233 141.89 50.97C142.19 51.5167 142.417 52.11 142.57 52.75C142.73 53.39 142.81 54.0633 142.81 54.77ZM140.06 54.77C140.06 53.9767 139.953 53.2667 139.74 52.64C139.527 52.0067 139.223 51.47 138.83 51.03C138.437 50.59 137.957 50.2533 137.39 50.02C136.83 49.7867 136.197 49.67 135.49 49.67C134.783 49.67 134.147 49.7867 133.58 50.02C133.02 50.2533 132.54 50.59 132.14 51.03C131.747 51.47 131.443 52.0067 131.23 52.64C131.017 53.2667 130.91 53.9767 130.91 54.77C130.91 55.5633 131.017 56.2767 131.23 56.91C131.443 57.5367 131.747 58.07 132.14 58.51C132.54 58.9433 133.02 59.2767 133.58 59.51C134.147 59.7433 134.783 59.86 135.49 59.86C136.197 59.86 136.83 59.7433 137.39 59.51C137.957 59.2767 138.437 58.9433 138.83 58.51C139.223 58.07 139.527 57.5367 139.74 56.91C139.953 56.2767 140.06 55.5633 140.06 54.77ZM150.993 59.83C151.513 59.83 151.976 59.7433 152.383 59.57C152.796 59.3967 153.143 59.1533 153.423 58.84C153.703 58.5267 153.916 58.1467 154.063 57.7C154.216 57.2533 154.293 56.7533 154.293 56.2V47.54H156.983V56.2C156.983 57.06 156.843 57.8567 156.563 58.59C156.289 59.3167 155.893 59.9467 155.373 60.48C154.859 61.0067 154.233 61.42 153.493 61.72C152.753 62.0133 151.919 62.16 150.993 62.16C150.059 62.16 149.223 62.0133 148.483 61.72C147.743 61.42 147.113 61.0067 146.593 60.48C146.079 59.9467 145.683 59.3167 145.403 58.59C145.129 57.8567 144.993 57.06 144.993 56.2V47.54H147.683V56.19C147.683 56.7433 147.756 57.2433 147.903 57.69C148.056 58.1367 148.273 58.52 148.553 58.84C148.839 59.1533 149.186 59.3967 149.593 59.57C150.006 59.7433 150.473 59.83 150.993 59.83ZM167.716 50.17C167.636 50.31 167.55 50.4133 167.456 50.48C167.37 50.54 167.26 50.57 167.126 50.57C166.986 50.57 166.833 50.52 166.666 50.42C166.506 50.3133 166.313 50.1967 166.086 50.07C165.86 49.9433 165.593 49.83 165.286 49.73C164.986 49.6233 164.63 49.57 164.216 49.57C163.843 49.57 163.516 49.6167 163.236 49.71C162.956 49.7967 162.72 49.92 162.526 50.08C162.34 50.24 162.2 50.4333 162.106 50.66C162.013 50.88 161.966 51.1233 161.966 51.39C161.966 51.73 162.06 52.0133 162.246 52.24C162.44 52.4667 162.693 52.66 163.006 52.82C163.32 52.98 163.676 53.1233 164.076 53.25C164.476 53.3767 164.886 53.5133 165.306 53.66C165.726 53.8 166.136 53.9667 166.536 54.16C166.936 54.3467 167.293 54.5867 167.606 54.88C167.92 55.1667 168.17 55.52 168.356 55.94C168.55 56.36 168.646 56.87 168.646 57.47C168.646 58.1233 168.533 58.7367 168.306 59.31C168.086 59.8767 167.76 60.3733 167.326 60.8C166.9 61.22 166.376 61.5533 165.756 61.8C165.136 62.04 164.426 62.16 163.626 62.16C163.166 62.16 162.713 62.1133 162.266 62.02C161.82 61.9333 161.39 61.8067 160.976 61.64C160.57 61.4733 160.186 61.2733 159.826 61.04C159.466 60.8067 159.146 60.5467 158.866 60.26L159.656 58.97C159.723 58.8767 159.81 58.8 159.916 58.74C160.023 58.6733 160.136 58.64 160.256 58.64C160.423 58.64 160.603 58.71 160.796 58.85C160.99 58.9833 161.22 59.1333 161.486 59.3C161.753 59.4667 162.063 59.62 162.416 59.76C162.776 59.8933 163.206 59.96 163.706 59.96C164.473 59.96 165.066 59.78 165.486 59.42C165.906 59.0533 166.116 58.53 166.116 57.85C166.116 57.47 166.02 57.16 165.826 56.92C165.64 56.68 165.39 56.48 165.076 56.32C164.763 56.1533 164.406 56.0133 164.006 55.9C163.606 55.7867 163.2 55.6633 162.786 55.53C162.373 55.3967 161.966 55.2367 161.566 55.05C161.166 54.8633 160.81 54.62 160.496 54.32C160.183 54.02 159.93 53.6467 159.736 53.2C159.55 52.7467 159.456 52.19 159.456 51.53C159.456 51.0033 159.56 50.49 159.766 49.99C159.98 49.49 160.286 49.0467 160.686 48.66C161.086 48.2733 161.58 47.9633 162.166 47.73C162.753 47.4967 163.426 47.38 164.186 47.38C165.04 47.38 165.826 47.5133 166.546 47.78C167.266 48.0467 167.88 48.42 168.386 48.9L167.716 50.17Z" fill="#222222"/>
<path d="M178.556 49.68V53.96H183.976V56.11H178.556V62H175.856V47.54H184.976V49.68H178.556ZM193.633 56.54L191.873 51.73C191.786 51.5167 191.696 51.2633 191.603 50.97C191.509 50.6767 191.416 50.36 191.323 50.02C191.236 50.36 191.146 50.68 191.053 50.98C190.959 51.2733 190.869 51.53 190.783 51.75L189.033 56.54H193.633ZM198.383 62H196.303C196.069 62 195.879 61.9433 195.733 61.83C195.586 61.71 195.476 61.5633 195.403 61.39L194.323 58.44H188.333L187.253 61.39C187.199 61.5433 187.096 61.6833 186.943 61.81C186.789 61.9367 186.599 62 186.373 62H184.273L189.963 47.54H192.703L198.383 62ZM207.58 50.17C207.5 50.31 207.413 50.4133 207.32 50.48C207.233 50.54 207.123 50.57 206.99 50.57C206.85 50.57 206.696 50.52 206.53 50.42C206.37 50.3133 206.176 50.1967 205.95 50.07C205.723 49.9433 205.456 49.83 205.15 49.73C204.85 49.6233 204.493 49.57 204.08 49.57C203.706 49.57 203.38 49.6167 203.1 49.71C202.82 49.7967 202.583 49.92 202.39 50.08C202.203 50.24 202.063 50.4333 201.97 50.66C201.876 50.88 201.83 51.1233 201.83 51.39C201.83 51.73 201.923 52.0133 202.11 52.24C202.303 52.4667 202.556 52.66 202.87 52.82C203.183 52.98 203.54 53.1233 203.94 53.25C204.34 53.3767 204.75 53.5133 205.17 53.66C205.59 53.8 206 53.9667 206.4 54.16C206.8 54.3467 207.156 54.5867 207.47 54.88C207.783 55.1667 208.033 55.52 208.22 55.94C208.413 56.36 208.51 56.87 208.51 57.47C208.51 58.1233 208.396 58.7367 208.17 59.31C207.95 59.8767 207.623 60.3733 207.19 60.8C206.763 61.22 206.24 61.5533 205.62 61.8C205 62.04 204.29 62.16 203.49 62.16C203.03 62.16 202.576 62.1133 202.13 62.02C201.683 61.9333 201.253 61.8067 200.84 61.64C200.433 61.4733 200.05 61.2733 199.69 61.04C199.33 60.8067 199.01 60.5467 198.73 60.26L199.52 58.97C199.586 58.8767 199.673 58.8 199.78 58.74C199.886 58.6733 200 58.64 200.12 58.64C200.286 58.64 200.466 58.71 200.66 58.85C200.853 58.9833 201.083 59.1333 201.35 59.3C201.616 59.4667 201.926 59.62 202.28 59.76C202.64 59.8933 203.07 59.96 203.57 59.96C204.336 59.96 204.93 59.78 205.35 59.42C205.77 59.0533 205.98 58.53 205.98 57.85C205.98 57.47 205.883 57.16 205.69 56.92C205.503 56.68 205.253 56.48 204.94 56.32C204.626 56.1533 204.27 56.0133 203.87 55.9C203.47 55.7867 203.063 55.6633 202.65 55.53C202.236 55.3967 201.83 55.2367 201.43 55.05C201.03 54.8633 200.673 54.62 200.36 54.32C200.046 54.02 199.793 53.6467 199.6 53.2C199.413 52.7467 199.32 52.19 199.32 51.53C199.32 51.0033 199.423 50.49 199.63 49.99C199.843 49.49 200.15 49.0467 200.55 48.66C200.95 48.2733 201.443 47.9633 202.03 47.73C202.616 47.4967 203.29 47.38 204.05 47.38C204.903 47.38 205.69 47.5133 206.41 47.78C207.13 48.0467 207.743 48.42 208.25 48.9L207.58 50.17ZM223.046 47.54V62H220.346V55.68H213.556V62H210.856V47.54H213.556V53.76H220.346V47.54H223.046ZM228.966 62H226.266V47.54H228.966V62ZM245.994 54.77C245.994 55.83 245.817 56.8133 245.464 57.72C245.117 58.62 244.624 59.4 243.984 60.06C243.344 60.72 242.574 61.2367 241.674 61.61C240.774 61.9767 239.774 62.16 238.674 62.16C237.58 62.16 236.584 61.9767 235.684 61.61C234.784 61.2367 234.01 60.72 233.364 60.06C232.724 59.4 232.227 58.62 231.874 57.72C231.52 56.8133 231.344 55.83 231.344 54.77C231.344 53.71 231.52 52.73 231.874 51.83C232.227 50.9233 232.724 50.14 233.364 49.48C234.01 48.82 234.784 48.3067 235.684 47.94C236.584 47.5667 237.58 47.38 238.674 47.38C239.407 47.38 240.097 47.4667 240.744 47.64C241.39 47.8067 241.984 48.0467 242.524 48.36C243.064 48.6667 243.547 49.0433 243.974 49.49C244.407 49.93 244.774 50.4233 245.074 50.97C245.374 51.5167 245.6 52.11 245.754 52.75C245.914 53.39 245.994 54.0633 245.994 54.77ZM243.244 54.77C243.244 53.9767 243.137 53.2667 242.924 52.64C242.71 52.0067 242.407 51.47 242.014 51.03C241.62 50.59 241.14 50.2533 240.574 50.02C240.014 49.7867 239.38 49.67 238.674 49.67C237.967 49.67 237.33 49.7867 236.764 50.02C236.204 50.2533 235.724 50.59 235.324 51.03C234.93 51.47 234.627 52.0067 234.414 52.64C234.2 53.2667 234.094 53.9767 234.094 54.77C234.094 55.5633 234.2 56.2767 234.414 56.91C234.627 57.5367 234.93 58.07 235.324 58.51C235.724 58.9433 236.204 59.2767 236.764 59.51C237.33 59.7433 237.967 59.86 238.674 59.86C239.38 59.86 240.014 59.7433 240.574 59.51C241.14 59.2767 241.62 58.9433 242.014 58.51C242.407 58.07 242.71 57.5367 242.924 56.91C243.137 56.2767 243.244 55.5633 243.244 54.77ZM260.546 47.54V62H259.166C258.953 62 258.773 61.9667 258.626 61.9C258.486 61.8267 258.349 61.7067 258.216 61.54L250.666 51.9C250.706 52.34 250.726 52.7467 250.726 53.12V62H248.356V47.54H249.766C249.879 47.54 249.976 47.5467 250.056 47.56C250.143 47.5667 250.216 47.5867 250.276 47.62C250.343 47.6467 250.406 47.69 250.466 47.75C250.526 47.8033 250.593 47.8767 250.666 47.97L258.246 57.65C258.226 57.4167 258.209 57.1867 258.196 56.96C258.183 56.7333 258.176 56.5233 258.176 56.33V47.54H260.546Z" fill="#F16D7F"/>
</svg>
